<mxfile host="app.diagrams.net" modified="2023-12-20T13:51:36.234Z" agent="Mozilla/5.0 (Windows NT 10.0; Win64; x64) AppleWebKit/537.36 (KHTML, like Gecko) Chrome/120.0.0.0 Safari/537.36" etag="fc_0Nwls7zTVQfI-rQ3H" version="22.1.11" type="github">
  <diagram name="PÃ¡gina-1" id="0gqNR9iIzD01g7om8HYn">
    <mxGraphModel dx="926" dy="457" grid="1" gridSize="10" guides="1" tooltips="1" connect="1" arrows="1" fold="1" page="1" pageScale="1" pageWidth="827" pageHeight="1169" math="0" shadow="0">
      <root>
        <mxCell id="0" />
        <mxCell id="1" parent="0" />
        <mxCell id="KxJMnZQ1Z0rmv5bRJUNF-1" value="&lt;h1&gt;User_pross.php&lt;/h1&gt;&lt;p&gt;El archivo procesa multiples consultas que provienen de archivos externos y consultas internas. Las variables definidas y que procesa son:&amp;nbsp;&lt;/p&gt;&lt;p&gt;- id_user&lt;/p&gt;&lt;p&gt;- datoIN&lt;/p&gt;&lt;p&gt;-datoIN2&lt;/p&gt;&lt;p&gt;- accion&lt;/p&gt;" style="text;html=1;strokeColor=none;fillColor=none;spacing=5;spacingTop=-20;whiteSpace=wrap;overflow=hidden;rounded=0;" vertex="1" parent="1">
          <mxGeometry x="20" y="20" width="190" height="240" as="geometry" />
        </mxCell>
        <mxCell id="KxJMnZQ1Z0rmv5bRJUNF-3" value="Server Request POST&lt;br&gt;accion, datoIN, datoIN2, id_user" style="shape=process;whiteSpace=wrap;html=1;backgroundOutline=1;" vertex="1" parent="1">
          <mxGeometry x="294" y="590" width="240" height="60" as="geometry" />
        </mxCell>
        <mxCell id="KxJMnZQ1Z0rmv5bRJUNF-5" style="edgeStyle=orthogonalEdgeStyle;rounded=0;orthogonalLoop=1;jettySize=auto;html=1;" edge="1" parent="1" source="KxJMnZQ1Z0rmv5bRJUNF-4" target="KxJMnZQ1Z0rmv5bRJUNF-3">
          <mxGeometry relative="1" as="geometry" />
        </mxCell>
        <mxCell id="KxJMnZQ1Z0rmv5bRJUNF-4" value="Se envian desde archivos externos datos a travez de formularios" style="rounded=1;whiteSpace=wrap;html=1;" vertex="1" parent="1">
          <mxGeometry x="10" y="430" width="210" height="60" as="geometry" />
        </mxCell>
        <mxCell id="KxJMnZQ1Z0rmv5bRJUNF-6" value="Externos" style="text;html=1;strokeColor=none;fillColor=none;align=center;verticalAlign=middle;whiteSpace=wrap;rounded=0;" vertex="1" parent="1">
          <mxGeometry x="20" y="400" width="70" height="30" as="geometry" />
        </mxCell>
        <mxCell id="KxJMnZQ1Z0rmv5bRJUNF-9" value="Formulario con boton login" style="swimlane;whiteSpace=wrap;html=1;" vertex="1" parent="1">
          <mxGeometry x="12.5" y="270" width="167.5" height="60" as="geometry" />
        </mxCell>
        <mxCell id="KxJMnZQ1Z0rmv5bRJUNF-15" style="edgeStyle=orthogonalEdgeStyle;rounded=0;orthogonalLoop=1;jettySize=auto;html=1;entryX=0.5;entryY=0;entryDx=0;entryDy=0;" edge="1" parent="1" source="KxJMnZQ1Z0rmv5bRJUNF-10" target="KxJMnZQ1Z0rmv5bRJUNF-4">
          <mxGeometry relative="1" as="geometry" />
        </mxCell>
        <mxCell id="KxJMnZQ1Z0rmv5bRJUNF-10" value="Formulario con boton Openwide" style="swimlane;whiteSpace=wrap;html=1;" vertex="1" parent="1">
          <mxGeometry x="190" y="270" width="202.5" height="60" as="geometry" />
        </mxCell>
        <mxCell id="KxJMnZQ1Z0rmv5bRJUNF-11" value="Formulario con boton Reset Pass" style="swimlane;whiteSpace=wrap;html=1;" vertex="1" parent="1">
          <mxGeometry x="400" y="270" width="202.5" height="60" as="geometry" />
        </mxCell>
        <mxCell id="KxJMnZQ1Z0rmv5bRJUNF-12" value="Formulario con boton borrar perfil" style="swimlane;whiteSpace=wrap;html=1;" vertex="1" parent="1">
          <mxGeometry x="610" y="270" width="202.5" height="60" as="geometry" />
        </mxCell>
        <mxCell id="KxJMnZQ1Z0rmv5bRJUNF-14" style="edgeStyle=orthogonalEdgeStyle;rounded=0;orthogonalLoop=1;jettySize=auto;html=1;entryX=0.41;entryY=0.006;entryDx=0;entryDy=0;entryPerimeter=0;" edge="1" parent="1" source="KxJMnZQ1Z0rmv5bRJUNF-9" target="KxJMnZQ1Z0rmv5bRJUNF-4">
          <mxGeometry relative="1" as="geometry" />
        </mxCell>
        <mxCell id="KxJMnZQ1Z0rmv5bRJUNF-16" style="edgeStyle=orthogonalEdgeStyle;rounded=0;orthogonalLoop=1;jettySize=auto;html=1;entryX=0.711;entryY=0.024;entryDx=0;entryDy=0;entryPerimeter=0;exitX=0.25;exitY=1;exitDx=0;exitDy=0;" edge="1" parent="1" source="KxJMnZQ1Z0rmv5bRJUNF-11" target="KxJMnZQ1Z0rmv5bRJUNF-4">
          <mxGeometry relative="1" as="geometry">
            <Array as="points">
              <mxPoint x="451" y="400" />
              <mxPoint x="159" y="400" />
            </Array>
          </mxGeometry>
        </mxCell>
        <mxCell id="KxJMnZQ1Z0rmv5bRJUNF-17" style="edgeStyle=orthogonalEdgeStyle;rounded=0;orthogonalLoop=1;jettySize=auto;html=1;entryX=0.966;entryY=0.024;entryDx=0;entryDy=0;entryPerimeter=0;" edge="1" parent="1" source="KxJMnZQ1Z0rmv5bRJUNF-12" target="KxJMnZQ1Z0rmv5bRJUNF-4">
          <mxGeometry relative="1" as="geometry">
            <Array as="points">
              <mxPoint x="711" y="410" />
              <mxPoint x="213" y="410" />
            </Array>
          </mxGeometry>
        </mxCell>
      </root>
    </mxGraphModel>
  </diagram>
</mxfile>
